<svg width="163" height="40" viewBox="0 0 163 40" fill="none" xmlns="http://www.w3.org/2000/svg" id="Camada_1" data-name="Camada 1"><path d="M58.21,29V12.2h7.08a5,5,0,0,1,2.66.72,5.08,5.08,0,0,1,1.9,1.92,5.16,5.16,0,0,1,.72,2.71A5.52,5.52,0,0,1,68,22.33a5,5,0,0,1-2.66.72H61.66V29Zm3.43-9.1h3.29a2,2,0,0,0,1.49-.64A2.37,2.37,0,0,0,67,17.6,2.2,2.2,0,0,0,66.42,16a2,2,0,0,0-1.49-.65H61.64Z" transform="translate(-1.87 -1.87)" style="fill:#494d4b"/><path d="M79,29.24a7,7,0,0,1-3.46-.84,6.36,6.36,0,0,1-2.37-2.35,6.63,6.63,0,0,1-.87-3.41,6.57,6.57,0,0,1,.87-3.38,6.1,6.1,0,0,1,2.37-2.33A6.81,6.81,0,0,1,79,16.06a6.73,6.73,0,0,1,3.41.87,6,6,0,0,1,2.37,2.33,6.57,6.57,0,0,1,.87,3.38,6.63,6.63,0,0,1-.87,3.41,6.29,6.29,0,0,1-2.37,2.35A6.92,6.92,0,0,1,79,29.24Zm0-2.86a3.19,3.19,0,0,0,1.73-.48,3.24,3.24,0,0,0,1.17-1.34,4.5,4.5,0,0,0,0-3.84,3.12,3.12,0,0,0-1.17-1.32A3.29,3.29,0,0,0,76,20.72a4.41,4.41,0,0,0,0,3.84,3.31,3.31,0,0,0,1.2,1.34A3.22,3.22,0,0,0,79,26.38Z" transform="translate(-1.87 -1.87)" style="fill:#494d4b"/><path d="M93.21,29.24a5.47,5.47,0,0,1-3-.84,6.19,6.19,0,0,1-2.09-2.35,7.54,7.54,0,0,1-.74-3.39,7.56,7.56,0,0,1,.74-3.4,5.92,5.92,0,0,1,2.09-2.33,5.33,5.33,0,0,1,3-.87,5.44,5.44,0,0,1,2.19.46,4.78,4.78,0,0,1,1.7,1.18V11.24h3.29V29H97.27l0-1.51a5,5,0,0,1-1.7,1.25A5.48,5.48,0,0,1,93.21,29.24Zm.72-2.74a3,3,0,0,0,2.38-1.05,4.16,4.16,0,0,0,.91-2.79,4.08,4.08,0,0,0-.91-2.78,3.15,3.15,0,0,0-4.75,0,4.09,4.09,0,0,0-.92,2.78,4.17,4.17,0,0,0,.92,2.79A3,3,0,0,0,93.93,26.5Z" transform="translate(-1.87 -1.87)" style="fill:#494d4b"/><path d="M109.21,29.24a6.23,6.23,0,0,1-3.24-.86A6.33,6.33,0,0,1,103.71,26a7,7,0,0,1-.81-3.38,6.9,6.9,0,0,1,.81-3.36A6.3,6.3,0,0,1,106,16.93a6.14,6.14,0,0,1,3.24-.87,7.39,7.39,0,0,1,3.09.63,5.12,5.12,0,0,1,2.21,1.75l-1.8,2.16a4.07,4.07,0,0,0-1.39-1.18,3.66,3.66,0,0,0-1.8-.5,3.34,3.34,0,0,0-1.8.5,3.45,3.45,0,0,0-1.22,1.32,4.09,4.09,0,0,0-.44,1.9,4,4,0,0,0,.46,1.9,3.58,3.58,0,0,0,1.25,1.34,3.36,3.36,0,0,0,1.77.48,3.74,3.74,0,0,0,1.73-.41,5.07,5.07,0,0,0,1.44-1.2l1.8,2.16a5.75,5.75,0,0,1-2.25,1.71A7.7,7.7,0,0,1,109.21,29.24Z" transform="translate(-1.87 -1.87)" style="fill:#494d4b"/><path d="M121.47,29.24a5,5,0,0,1-2.85-.86,6.2,6.2,0,0,1-2-2.36,7.4,7.4,0,0,1-.75-3.38,7.39,7.39,0,0,1,.75-3.41,6,6,0,0,1,2.06-2.33,5.42,5.42,0,0,1,3-.84,4.8,4.8,0,0,1,2.35.56A4.37,4.37,0,0,1,125.58,18V16.33h3.26V29h-3.29V27.3a5.31,5.31,0,0,1-1.75,1.39A4.91,4.91,0,0,1,121.47,29.24Zm.89-2.86a3,3,0,0,0,2.38-1,4,4,0,0,0,.91-2.71,4,4,0,0,0-.91-2.71,3,3,0,0,0-2.38-1,3,3,0,0,0-2.35,1,4,4,0,0,0-.89,2.71,4,4,0,0,0,.89,2.71A3,3,0,0,0,122.36,26.38Z" transform="translate(-1.87 -1.87)" style="fill:#494d4b"/><path d="M136.53,29.24a7.86,7.86,0,0,1-3.12-.58A5.4,5.4,0,0,1,131.2,27l2.07-1.75a4.31,4.31,0,0,0,1.63,1.15,5.17,5.17,0,0,0,1.85.34,2,2,0,0,0,1.2-.34,1.09,1.09,0,0,0,.45-.93,1,1,0,0,0-.43-.84,8,8,0,0,0-2.06-.72,7.07,7.07,0,0,1-3.43-1.71,3.33,3.33,0,0,1-.89-2.37,3,3,0,0,1,.67-2A4.42,4.42,0,0,1,134,16.54a5.9,5.9,0,0,1,2.39-.48,7.51,7.51,0,0,1,2.81.53A6.23,6.23,0,0,1,141.45,18L139.68,20a6.07,6.07,0,0,0-1.56-1,3.77,3.77,0,0,0-1.61-.43c-1.16,0-1.73.4-1.73,1.2a1.07,1.07,0,0,0,.53.91,8.14,8.14,0,0,0,2.18.8A6.84,6.84,0,0,1,140.71,23a3.07,3.07,0,0,1,.81,2.23,3.39,3.39,0,0,1-.67,2.07,4.5,4.5,0,0,1-1.78,1.44A6.22,6.22,0,0,1,136.53,29.24Z" transform="translate(-1.87 -1.87)" style="fill:#494d4b"/><path d="M145.25,29V19.28h-2.4v-3h2.4V13.09h3.26v3.24h2.67v3h-2.67V29Z" transform="translate(-1.87 -1.87)" style="fill:#494d4b"/><path d="M153.38,29V16.33h3.16l.05,2.09a5.13,5.13,0,0,1,1.63-1.68,3.84,3.84,0,0,1,3-.6,3.07,3.07,0,0,1,.64.14l-.88,3.6a2.44,2.44,0,0,0-.68-.24,3.74,3.74,0,0,0-.81-.1,2.77,2.77,0,0,0-2.79,2.84V29Z" transform="translate(-1.87 -1.87)" style="fill:#494d4b"/><path d="M38.13,19.89a18.15,18.15,0,0,1-2.35,9c-.2.35-.42.7-.65,1.05a1.6,1.6,0,0,1-.42.44,1.69,1.69,0,0,1-.57.24,1.79,1.79,0,0,1-.61,0,1.45,1.45,0,0,1-.57-.24,1.63,1.63,0,0,1-.44-.43,1.59,1.59,0,0,1-.23-.57,1.57,1.57,0,0,1,0-.61,1.51,1.51,0,0,1,.24-.57A15,15,0,1,0,5,20.05a14.87,14.87,0,0,0,2.47,8.2A1.56,1.56,0,0,1,7,30.42a1.54,1.54,0,0,1-1.18.22,1.55,1.55,0,0,1-1-.67A18.12,18.12,0,0,1,19.66,1.88H20a18.08,18.08,0,0,1,18.13,18Z" transform="translate(-1.87 -1.87)" style="fill:#494d4b"/><path d="M9.07,22.79,11.9,36.88A1.56,1.56,0,1,0,15,36.27L12.13,22.18a1.56,1.56,0,0,0-3.06.61Z" transform="translate(-1.87 -1.87)" style="fill:#04d361"/><path d="M11.84,36.56l-.71.15A4.31,4.31,0,0,1,8,36.15a4.25,4.25,0,0,1-1.87-2.54l-.06-.24-1-5.11a4.27,4.27,0,0,1,3.34-5l.72-.15,1.26,6.26Z" transform="translate(-1.87 -1.87)" style="fill:#494d4b"/><path d="M11.84,36.56l-.71.15A4.31,4.31,0,0,1,8,36.15a4.25,4.25,0,0,1-1.87-2.54,39.67,39.67,0,0,0,4.23-4.27Z" transform="translate(-1.87 -1.87)" style="fill:#494d4b"/><path d="M36.15,27.09l-.37,1.84c-.2.35-.42.7-.65,1.05a1.6,1.6,0,0,1-.42.44,1.69,1.69,0,0,1-.57.24,1.79,1.79,0,0,1-.61,0,1.45,1.45,0,0,1-.57-.24,1.63,1.63,0,0,1-.44-.43,1.59,1.59,0,0,1-.23-.57,1.57,1.57,0,0,1,0-.61,1.51,1.51,0,0,1,.24-.57A14.65,14.65,0,0,0,34.7,23,4.3,4.3,0,0,1,36,24.83,4.35,4.35,0,0,1,36.15,27.09Z" transform="translate(-1.87 -1.87)" style="fill:#494d4b"/><path d="M34.3,8.83l-2.25,2.24a15,15,0,0,0-24.59.76L5.18,9.56A18.12,18.12,0,0,1,19.66,1.88H20a18.07,18.07,0,0,1,14.3,7Z" transform="translate(-1.87 -1.87)" style="fill:#ff7ba9"/><path d="M27.85,22.16,25,36.25a1.57,1.57,0,0,0,3.07.62l2.83-14.09a1.56,1.56,0,0,0-3.06-.62Z" transform="translate(-1.87 -1.87)" style="fill:#04d361"/><path d="M34.93,28.26l-1,5.11a4.27,4.27,0,0,1-5,3.34l-.71-.15.74-3.69,2-9.79.72.15a4.27,4.27,0,0,1,2.71,1.82c.09.13.16.26.24.4A4.33,4.33,0,0,1,34.93,28.26Z" transform="translate(-1.87 -1.87)" style="fill:#494d4b"/><path d="M34.93,28.26l-1,5.11a4.27,4.27,0,0,1-5,3.34l-.71-.15.74-3.69a43.34,43.34,0,0,0,5.64-7.42A4.33,4.33,0,0,1,34.93,28.26Z" transform="translate(-1.87 -1.87)" style="fill:#494d4b"/></svg>